<!--version="1.0" encoding="utf-8"--><!-- Generator: Adobe Illustrator 27.5.0, SVG Export Plug-In . SVG Version: 6.00 Build 0)  --><svg version="1.1" xmlns="http://www.w3.org/2000/svg" x="0" y="0" viewBox="0 0 750 500" style="" xml:space="preserve"><g id="Background_Complete"><rect x="384.538" y="223.266" style="fill: rgb(235, 235, 235);" width="77.731" height="203.458"/><rect x="423.404" y="223.266" style="fill: rgb(224, 224, 224);" width="38.865" height="203.458"/><rect x="393.414" y="199.081" style="fill: rgb(235, 235, 235);" width="27.449" height="24.185"/><rect x="414.321" y="199.081" style="fill: rgb(224, 224, 224);" width="6.542" height="24.185"/><rect x="378.06" y="221.856" style="fill: rgb(224, 224, 224);" width="86.484" height="1.411"/><rect x="399.882" y="233.814" style="fill: rgb(255, 255, 255);" width="6.58" height="13.873"/><path style="fill: rgb(224, 224, 224);" d="M423.404 253.133c0 .146-8.7.265-19.432.265-10.734 0-19.434-.118-19.434-.265 0-.146 8.7-.265 19.434-.265 10.73 0 19.432.118 19.432.265z"/><rect x="439.085" y="233.814" style="fill: rgb(245, 245, 245);" width="6.579" height="13.873"/><path style="fill: rgb(235, 235, 235);" d="M462.607 253.133c0 .146-8.7.265-19.432.265-10.734 0-19.434-.118-19.434-.265 0-.146 8.7-.265 19.435-.265 10.73 0 19.432.118 19.432.265z"/><rect x="439.085" y="261.359" style="fill: rgb(245, 245, 245);" width="6.579" height="13.874"/><path style="fill: rgb(235, 235, 235);" d="M462.607 280.677c0 .146-8.7.265-19.432.265-10.734 0-19.434-.12-19.434-.265 0-.146 8.7-.265 19.435-.265 10.73 0 19.432.12 19.432.265z"/><rect x="439.085" y="289.734" style="fill: rgb(245, 245, 245);" width="6.579" height="13.874"/><path style="fill: rgb(235, 235, 235);" d="M462.607 309.053c0 .146-8.7.265-19.432.265-10.734 0-19.434-.12-19.434-.265s8.7-.265 19.435-.265c10.73 0 19.432.12 19.432.265z"/><rect x="439.085" y="318.11" style="fill: rgb(245, 245, 245);" width="6.579" height="13.873"/><path style="fill: rgb(235, 235, 235);" d="M462.607 337.43c0 .145-8.7.264-19.432.264-10.734 0-19.434-.12-19.434-.265 0-.147 8.7-.266 19.435-.266 10.73 0 19.432.12 19.432.265z"/><rect x="439.085" y="345.674" style="fill: rgb(245, 245, 245);" width="6.579" height="13.873"/><path style="fill: rgb(235, 235, 235);" d="M462.607 364.993c0 .146-8.7.265-19.432.265-10.734 0-19.434-.12-19.434-.265 0-.146 8.7-.265 19.435-.265 10.73 0 19.432.12 19.432.265z"/><rect x="439.085" y="373.35" style="fill: rgb(245, 245, 245);" width="6.579" height="13.874"/><rect x="439.085" y="401.388" style="fill: rgb(245, 245, 245);" width="6.579" height="13.874"/><path style="fill: rgb(235, 235, 235);" d="M462.607 392.668c0 .146-8.7.265-19.432.265-10.734 0-19.434-.12-19.434-.265 0-.146 8.7-.265 19.435-.265 10.73 0 19.432.12 19.432.265z"/><rect x="399.882" y="261.779" style="fill: rgb(255, 255, 255);" width="6.58" height="13.874"/><path style="fill: rgb(224, 224, 224);" d="M423.404 281.098c0 .146-8.7.265-19.432.265-10.734 0-19.434-.12-19.434-.265 0-.146 8.7-.265 19.434-.265 10.73 0 19.432.12 19.432.265z"/><rect x="399.882" y="289.744" style="fill: rgb(255, 255, 255);" width="6.58" height="13.873"/><path style="fill: rgb(224, 224, 224);" d="M423.404 309.063c0 .146-8.7.265-19.432.265-10.734 0-19.434-.118-19.434-.265 0-.146 8.7-.265 19.434-.265 10.73 0 19.432.12 19.432.265z"/><rect x="399.882" y="317.709" style="fill: rgb(255, 255, 255);" width="6.58" height="13.873"/><path style="fill: rgb(224, 224, 224);" d="M423.404 337.028c0 .146-8.7.265-19.432.265-10.734 0-19.434-.118-19.434-.265 0-.146 8.7-.265 19.434-.265 10.73 0 19.432.12 19.432.265z"/><rect x="399.882" y="345.674" style="fill: rgb(255, 255, 255);" width="6.58" height="13.873"/><path style="fill: rgb(224, 224, 224);" d="M423.404 364.993c0 .146-8.7.265-19.432.265-10.734 0-19.434-.12-19.434-.265 0-.146 8.7-.265 19.434-.265 10.73 0 19.432.12 19.432.265z"/><rect x="399.882" y="373.639" style="fill: rgb(255, 255, 255);" width="6.58" height="13.874"/><path style="fill: rgb(224, 224, 224);" d="M423.404 392.958c0 .146-8.7.265-19.432.265-10.734 0-19.434-.12-19.434-.265 0-.146 8.7-.265 19.434-.265 10.73 0 19.432.12 19.432.265z"/><rect x="399.882" y="401.604" style="fill: rgb(255, 255, 255);" width="6.58" height="13.874"/><rect x="108.688" y="93.426" style="fill: rgb(245, 245, 245);" width="88.222" height="279.595"/><rect x="152.799" y="93.426" style="fill: rgb(235, 235, 235);" width="44.111" height="278.826"/><rect x="118.761" y="65.978" style="fill: rgb(245, 245, 245);" width="31.153" height="27.449"/><rect x="142.49" y="65.978" style="fill: rgb(235, 235, 235);" width="7.425" height="27.449"/><polyline style="fill: rgb(224, 224, 224);" points="101.335 93.426 101.335 91.826 199.491 91.826 199.491 93.426"/><rect x="126.102" y="105.398" style="fill: rgb(250, 250, 250);" width="7.467" height="15.746"/><path style="fill: rgb(224, 224, 224);" d="M152.8 127.324c0 .166-9.877.3-22.056.3-12.183 0-22.056-.133-22.056-.3s9.873-.3 22.056-.3c12.18 0 22.055.134 22.055.3z"/><rect x="170.597" y="105.398" style="fill: rgb(224, 224, 224);" width="7.467" height="15.746"/><path style="fill: rgb(224, 224, 224);" d="M197.294 127.324c0 .166-9.875.3-22.054.3-12.183 0-22.057-.133-22.057-.3s9.873-.3 22.057-.3c12.178 0 22.054.134 22.054.3z"/><rect x="170.597" y="136.66" style="fill: rgb(224, 224, 224);" width="7.467" height="15.746"/><path style="fill: rgb(224, 224, 224);" d="M197.294 158.586c0 .166-9.875.3-22.054.3-12.183 0-22.057-.134-22.057-.3s9.873-.3 22.057-.3c12.178 0 22.054.134 22.054.3z"/><rect x="170.597" y="168.866" style="fill: rgb(224, 224, 224);" width="7.467" height="15.746"/><path style="fill: rgb(224, 224, 224);" d="M197.294 190.792c0 .166-9.875.3-22.054.3-12.183 0-22.057-.134-22.057-.3 0-.166 9.873-.3 22.057-.3 12.178 0 22.054.134 22.054.3z"/><rect x="170.597" y="201.071" style="fill: rgb(224, 224, 224);" width="7.467" height="15.746"/><path style="fill: rgb(224, 224, 224);" d="M197.294 222.997c0 .166-9.875.3-22.054.3-12.183 0-22.057-.134-22.057-.3 0-.166 9.873-.3 22.057-.3 12.178 0 22.054.134 22.054.3z"/><rect x="170.597" y="232.355" style="fill: rgb(224, 224, 224);" width="7.467" height="15.746"/><path style="fill: rgb(224, 224, 224);" d="M197.294 254.28c0 .167-9.875.302-22.054.302-12.183 0-22.057-.135-22.057-.3 0-.167 9.873-.302 22.057-.302 12.178 0 22.054.136 22.054.3z"/><rect x="170.597" y="263.766" style="fill: rgb(224, 224, 224);" width="7.467" height="15.746"/><rect x="170.597" y="295.588" style="fill: rgb(224, 224, 224);" width="7.467" height="15.746"/><path style="fill: rgb(224, 224, 224);" d="M197.294 285.692c0 .166-9.875.3-22.054.3-12.183 0-22.057-.134-22.057-.3 0-.166 9.873-.3 22.057-.3 12.178 0 22.054.134 22.054.3z"/><rect x="126.102" y="137.137" style="fill: rgb(250, 250, 250);" width="7.467" height="15.746"/><path style="fill: rgb(224, 224, 224);" d="M152.8 159.063c0 .166-9.877.3-22.056.3-12.183 0-22.056-.134-22.056-.3 0-.166 9.873-.3 22.056-.3 12.18 0 22.055.134 22.055.3z"/><rect x="126.102" y="168.877" style="fill: rgb(250, 250, 250);" width="7.467" height="15.746"/><path style="fill: rgb(224, 224, 224);" d="M152.8 190.803c0 .166-9.877.3-22.056.3-12.183 0-22.056-.133-22.056-.3 0-.166 9.873-.3 22.056-.3 12.18 0 22.055.134 22.055.3z"/><rect x="126.102" y="200.616" style="fill: rgb(250, 250, 250);" width="7.467" height="15.746"/><path style="fill: rgb(224, 224, 224);" d="M152.8 222.542c0 .166-9.877.3-22.056.3-12.183 0-22.056-.134-22.056-.3 0-.166 9.873-.3 22.056-.3 12.18 0 22.055.134 22.055.3z"/><rect x="126.102" y="232.355" style="fill: rgb(250, 250, 250);" width="7.467" height="15.746"/><path style="fill: rgb(224, 224, 224);" d="M152.8 254.28c0 .167-9.877.302-22.056.302-12.183 0-22.056-.135-22.056-.3 0-.167 9.873-.302 22.056-.302 12.18 0 22.055.136 22.055.3z"/><rect x="126.102" y="264.095" style="fill: rgb(250, 250, 250);" width="7.467" height="15.746"/><path style="fill: rgb(224, 224, 224);" d="M152.8 286.02c0 .167-9.877.302-22.056.302-12.183 0-22.056-.135-22.056-.3 0-.167 9.873-.3 22.056-.3 12.18-.002 22.055.133 22.055.3z"/><rect x="126.102" y="295.834" style="fill: rgb(250, 250, 250);" width="7.467" height="15.746"/><rect x="186.187" y="255.065" style="fill: rgb(235, 235, 235);" width="128.795" height="169.875"/><rect x="254.592" y="255.065" style="fill: rgb(224, 224, 224);" width="60.389" height="169.875"/><rect x="213.192" y="278.065" style="fill: rgb(245, 245, 245);" width="11.58" height="28.135"/><rect x="213.192" y="388.179" style="fill: rgb(245, 245, 245);" width="11.58" height="28.135"/><path style="fill: rgb(245, 245, 245);" d="M254.592 317.24c0 .317-15.314.574-34.2.574-18.894 0-34.205-.256-34.205-.573 0-.315 15.31-.57 34.204-.57 18.888 0 34.202.256 34.202.57z"/><rect x="213.192" y="333.539" style="fill: rgb(245, 245, 245);" width="11.58" height="28.135"/><path style="fill: rgb(245, 245, 245);" d="M254.592 372.716c0 .316-15.314.573-34.2.573-18.894 0-34.205-.258-34.205-.574s15.31-.572 34.204-.572c18.888 0 34.202.257 34.202.572z"/><rect x="267.416" y="278.065" style="fill: rgb(245, 245, 245);" width="11.58" height="28.135"/><rect x="292.54" y="278.065" style="fill: rgb(245, 245, 245);" width="11.58" height="28.135"/><rect x="267.416" y="331.452" style="fill: rgb(245, 245, 245);" width="11.58" height="28.135"/><rect x="292.54" y="331.452" style="fill: rgb(245, 245, 245);" width="11.58" height="28.135"/><rect x="267.416" y="384.839" style="fill: rgb(245, 245, 245);" width="11.58" height="28.135"/><rect x="292.54" y="384.839" style="fill: rgb(245, 245, 245);" width="11.58" height="28.135"/><rect x="176.505" y="249.152" style="fill: rgb(224, 224, 224);" width="148.158" height="6.125"/><path style="fill: rgb(235, 235, 235);" d="M315.88 255.854c0 .316-28.786.573-64.288.573-35.514 0-64.295-.257-64.295-.573s28.78-.572 64.295-.572c35.502 0 64.29.256 64.29.572z"/><polygon style="fill: rgb(235, 235, 235);" points="183.47 424.969 53.649 424.969 53.084 219.795 182.905 219.795"/><rect x="117.995" y="219.795" style="fill: rgb(224, 224, 224);" width="64.91" height="205.173"/><rect x="67.908" y="179.403" style="fill: rgb(235, 235, 235);" width="45.843" height="40.392"/><rect x="102.825" y="179.403" style="fill: rgb(224, 224, 224);" width="10.926" height="40.392"/><rect x="42.265" y="217.439" style="fill: rgb(224, 224, 224);" width="144.439" height="2.356"/><rect x="78.71" y="237.411" style="fill: rgb(255, 255, 255);" width="10.989" height="23.171"/><path style="fill: rgb(224, 224, 224);" d="M117.995 269.676c0 .245-14.532.442-32.454.442-17.927 0-32.456-.198-32.456-.442s14.53-.443 32.457-.443c17.923 0 32.455.198 32.455.443z"/><rect x="144.185" y="237.411" style="fill: rgb(245, 245, 245);" width="10.989" height="23.171"/><path style="fill: rgb(235, 235, 235);" d="M183.47 269.676c0 .245-14.532.442-32.453.442-17.928 0-32.457-.198-32.457-.442s14.528-.443 32.457-.443c17.92 0 32.453.198 32.453.443z"/><rect x="144.185" y="283.414" style="fill: rgb(245, 245, 245);" width="10.989" height="23.171"/><path style="fill: rgb(235, 235, 235);" d="M183.47 315.68c0 .244-14.532.442-32.453.442-17.928 0-32.457-.198-32.457-.443 0-.245 14.528-.443 32.457-.443 17.92 0 32.453.198 32.453.442z"/><rect x="144.185" y="330.806" style="fill: rgb(245, 245, 245);" width="10.989" height="23.171"/><path style="fill: rgb(235, 235, 235);" d="M183.47 363.07c0 .244-14.532.443-32.453.443-17.928 0-32.457-.198-32.457-.443 0-.244 14.528-.442 32.457-.442 17.92 0 32.453.198 32.453.442z"/><rect x="144.185" y="378.197" style="fill: rgb(245, 245, 245);" width="10.989" height="23.171"/><path style="fill: rgb(235, 235, 235);" d="M183.47 410.46c0 .245-14.532.444-32.453.444-17.928 0-32.457-.198-32.457-.443 0-.243 14.528-.44 32.457-.44 17.92 0 32.453.197 32.453.44z"/><rect x="78.71" y="284.117" style="fill: rgb(255, 255, 255);" width="10.989" height="23.171"/><path style="fill: rgb(224, 224, 224);" d="M117.995 316.38c0 .246-14.532.444-32.454.444-17.927 0-32.456-.198-32.456-.443 0-.243 14.53-.44 32.457-.44 17.923 0 32.455.197 32.455.44z"/><rect x="78.71" y="330.822" style="fill: rgb(255, 255, 255);" width="10.989" height="23.171"/><path style="fill: rgb(224, 224, 224);" d="M117.995 363.086c0 .244-14.532.443-32.454.443-17.927 0-32.456-.2-32.456-.444s14.53-.442 32.457-.442c17.923 0 32.455.198 32.455.442z"/><rect x="78.71" y="377.527" style="fill: rgb(255, 255, 255);" width="10.989" height="23.17"/><path style="fill: rgb(224, 224, 224);" d="M117.995 409.792c0 .245-14.532.443-32.454.443-17.927 0-32.456-.198-32.456-.443 0-.244 14.53-.442 32.457-.442 17.923 0 32.455.198 32.455.442z"/><path style="fill: rgb(235, 235, 235);" d="M306.397 91.555c.472-3.432-4.37-6.256-8.01-6.55-1.737-.14-3.54.126-5.184-.447-3.563-1.242-4.986-5.844-8.462-7.31-2.598-1.097-5.59-.12-8.11 1.147-2.52 1.268-5.01 2.864-7.824 3.044-2.448.156-5.107-.752-7.25.444-1.595.89-2.43 2.73-3.903 3.816-1.44 1.062-3.317 1.286-5.103 1.384-1.786.097-3.635.115-5.26.86-1.627.745-2.973 2.464-2.635 4.22l61.742-.61z"/><path style="fill: rgb(250, 250, 250);" d="M328.175 192.022c.472-3.432-4.37-6.255-8.01-6.55-1.737-.14-3.54.126-5.184-.447-3.562-1.242-4.985-5.844-8.46-7.31-2.6-1.097-5.592-.12-8.112 1.147-2.52 1.268-5.01 2.864-7.824 3.044-2.448.157-5.107-.75-7.25.445-1.595.892-2.43 2.732-3.903 3.817-1.438 1.062-3.316 1.286-5.102 1.384-1.786.098-3.635.116-5.26.86-1.627.746-2.973 2.465-2.635 4.222l61.742-.61z"/><path style="fill: rgb(235, 235, 235);" d="M692.053 100.524c.472-3.432-4.37-6.255-8.01-6.55-1.737-.14-3.54.126-5.184-.447-3.564-1.242-4.987-5.844-8.463-7.31-2.599-1.097-5.59-.12-8.11 1.147-2.519 1.268-5.009 2.864-7.824 3.044-2.448.157-5.107-.75-7.249.445-1.596.89-2.432 2.73-3.904 3.816-1.439 1.06-3.317 1.285-5.103 1.383-1.786.097-3.635.115-5.26.86-1.627.745-2.973 2.464-2.635 4.22l61.74-.61z"/><path style="fill: rgb(245, 245, 245);" d="M411.094 149.41c.863-6.27-7.984-11.426-14.632-11.962-3.17-.256-6.464.23-9.467-.818-6.507-2.268-9.107-10.675-15.456-13.353-4.748-2.002-10.213-.22-14.815 2.096-4.602 2.316-9.15 5.23-14.292 5.56-4.472.286-9.33-1.372-13.242.813-2.915 1.628-4.442 4.988-7.13 6.97-2.628 1.94-6.058 2.35-9.32 2.527-3.262.178-6.64.21-9.61 1.57-2.97 1.36-5.428 4.5-4.81 7.71l112.774-1.113z"/><path style="fill: rgb(235, 235, 235);" d="M466.853 75.34c-.013.035-.365-.094-1.02-.226a8.25 8.25 0 0 0-2.802-.074 7.574 7.574 0 0 0-3.748 1.64 7.82 7.82 0 0 0-2.64 4.21l-.013.045-.16.623-.24-.59a8.415 8.415 0 0 0-3.167-3.837 8.193 8.193 0 0 0-3.874-1.315c-2.385-.162-3.78.582-3.796.483-.01-.02.317-.21.964-.42a8.115 8.115 0 0 1 2.85-.36 8.246 8.246 0 0 1 4.064 1.288 8.637 8.637 0 0 1 3.346 4.004l-.4.032.013-.05a8.076 8.076 0 0 1 2.807-4.412 7.69 7.69 0 0 1 3.954-1.635 7.63 7.63 0 0 1 2.878.21c.66.185.994.366.985.386z"/><path style="fill: rgb(235, 235, 235);" d="M505.537 118.525c-.015.04-.727-.25-2.07-.55a16.53 16.53 0 0 0-5.78-.22c-2.416.322-5.28 1.294-7.786 3.357-2.5 2.026-4.64 5.09-5.496 8.727l-.025.096-.16.624-.24-.59c-1.4-3.456-3.886-6.202-6.582-7.947-2.703-1.777-5.61-2.514-8.037-2.68a17.76 17.76 0 0 0-5.74.526c-1.327.35-2.027.657-2.042.617-.006-.013.166-.096.5-.24.332-.148.835-.34 1.498-.535 1.32-.397 3.32-.8 5.805-.664 2.47.13 5.45.85 8.23 2.65 2.768 1.768 5.324 4.57 6.76 8.115l-.4.032.025-.1c.88-3.738 3.086-6.873 5.662-8.932 2.583-2.1 5.528-3.062 7.992-3.352 2.483-.298 4.514.013 5.854.36.674.17 1.186.343 1.524.48.34.135.514.212.51.225z"/><path style="fill: rgb(235, 235, 235);" d="M583.09 93.628c-.013.035-.41-.114-1.147-.266a9.253 9.253 0 0 0-3.16-.092c-1.32.185-2.877.72-4.238 1.85-1.359 1.106-2.52 2.776-2.986 4.753l-.014.053-.16.623-.239-.592a9.497 9.497 0 0 0-3.579-4.333 9.223 9.223 0 0 0-4.377-1.48 9.962 9.962 0 0 0-3.143.258c-.729.18-1.119.338-1.133.305-.006-.013.086-.064.268-.15.181-.087.456-.198.821-.31a9.196 9.196 0 0 1 3.207-.398 9.286 9.286 0 0 1 4.568 1.45 9.722 9.722 0 0 1 3.76 4.5l-.4.033.013-.055a9.07 9.07 0 0 1 3.153-4.96 8.642 8.642 0 0 1 4.442-1.84 8.636 8.636 0 0 1 3.237.226c.37.1.65.2.836.283.183.08.277.127.272.14z"/><path style="fill: rgb(235, 235, 235);" d="M525.54 73.844c.025.026-.396.453-1.112 1.26a27.243 27.243 0 0 0-2.71 3.66c-2.05 3.223-4.098 8.358-4.028 14.25v.18l-.42.035a23.43 23.43 0 0 0-2.604-7.718 23.98 23.98 0 0 0-3.966-5.358c-1.34-1.356-2.56-2.312-3.44-2.916-.876-.607-1.385-.913-1.366-.945.007-.013.14.052.39.186.243.14.622.32 1.067.623.914.566 2.176 1.496 3.558 2.842 1.384 1.342 2.85 3.145 4.095 5.38a23.324 23.324 0 0 1 2.683 7.844l-.418.033v-.183c-.071-5.994 2.062-11.197 4.197-14.413 1.063-1.63 2.084-2.836 2.842-3.612.366-.4.69-.673.896-.87.21-.196.326-.292.336-.28z"/></g><path style="fill: rgb(38, 50, 56);" d="M705.373 427.867c0 .144-147.925.26-330.357.26-182.496 0-330.39-.117-330.39-.26 0-.144 147.894-.26 330.39-.26 182.432 0 330.357.116 330.357.26z" id="Floor"/><g id="Car"><path style="fill: rgb(235, 235, 235);" d="M525.053 427.867c19.495-1.28 58.793-6.47 81.436-9.524 10.188-1.375 21.477-3.622 31.152-7.1 9.675-3.478 18.683-10.16 22.563-19.682 2.603-6.386 2.446-14.4-2.236-19.464-5.612-6.07-15.244-5.828-23.297-3.965 5.246-5.18 13.148-7.518 20.368-6.022 7.22 1.495 13.545 6.778 16.3 13.618 7.52-3.827 17.288-2.69 23.728 2.762 6.44 5.452 9.173 14.897 6.64 22.945 6.196-2.266 13.583-.87 18.524 3.5 4.942 4.37 6.499 16.51 5.007 22.935H525.052z"/><path style="fill: rgb(235, 235, 235);" d="M589.196 413.264c9.174-1.654 18.455-3.34 26.95-7.175 1.766-.798 3.557-1.74 4.704-3.3 1.147-1.56 1.45-3.902.2-5.383-1.066-1.266-2.906-1.56-4.558-1.447-3.33.228-6.454 1.742-9.184 3.662s-5.14 4.25-7.706 6.385a66.31 66.31 0 0 1-10.96 7.396"/><path style="fill: rgb(38, 50, 56);" d="M433.943 271.063c0 .01-.092.014-.27.014l-.786-.01-3.023-.092c-2.666-.104-6.453-.25-11.114-.433l-16.48-.71-9.73-.435c-1.69-.122-3.405-.035-5.147-.03l-5.31.014c-14.344-.045-27.314-.637-36.697-1.05l-11.11-.535c-1.28-.07-2.29-.127-3.02-.168l-.786-.057c-.177-.016-.267-.028-.267-.037 0-.01.09-.014.27-.016.206 0 .465.003.786.005l3.023.07c2.667.09 6.454.215 11.118.37 9.388.318 22.356.85 36.686.897l5.304-.012c1.747-.004 3.47-.09 5.157.037l9.734.467c6.196.31 11.778.586 16.483.82l11.11.6 3.02.188.784.062c.176.02.267.032.266.04z"/><path style="fill: rgb(232, 80, 91);" d="M594.322 391.15H73.062v-25.655c0-24.332 19.724-44.057 44.056-44.057h477.204v69.712z"/><path d="M594.322 391.15H73.062v-25.655c0-24.332 19.724-44.057 44.056-44.057h477.204v69.712z" style="opacity: 0.4;"/><path style="fill: rgb(232, 80, 91);" d="M28.507 388.746s18.53 20.247 52.506 16.13c0 0-13.6-75.462 57.654-79.618 0 0 32.66-2.853 49.483 23.957 4.91 7.822 7.407 16.913 7.65 26.145.282 10.6.607 28.503-.24 33.022 0 0 235.477-9.794 276.696-5.1 0 0-18.76-58.39 32.93-77.127 8.825-3.198 18.995-3.543 28.29-2.237 12.678 1.782 26.255 7.578 35.05 21.005 3.774 5.763 8.435 14.138 9.75 20.9 2.252 11.582.728 22.507 0 28.183l19.49-1.887 14.062-46.586-2.04-27.75L595.3 290.44l-34.28 4.08s-63.462-17.956-100.803-25.506c-37.342-7.55-96.313-8.978-110.597-6.53-14.284 2.45-19.72 5.1-26.796 8.162-7.077 3.06-72.374 34.28-72.374 34.28l-99.782.817s-68.154-1.428-111.21 49.79l5.715 23.057-16.666 10.156z"/><path style="fill: rgb(69, 90, 100);" d="M250.45 304.927s61.488 2.62 77.67 2.03c16.184-.587 103.72-10.885 103.72-10.885l1.257-25.138s-29.033-1.92-48.09-1.92c-15.86 0-54.802-1.48-54.802-1.48-1.25.52-2.608 1.05-3.876 1.59-22.628 9.646-48.053 22.368-75.88 35.803z"/><path style="fill: rgb(235, 235, 235);" d="M54.02 340.842s9.11 1.46 20.502-3.647c11.392-5.107 43.802-22.588 43.802-22.588l-2.14-4.433s-5.82 1.17-12.503 3.285c-7.184 2.272-15.38 5.74-21.077 8.668-4.728 2.43-10.59 5.59-15.545 8.89-7.47 4.974-13.037 9.824-13.037 9.824z"/><path style="fill: rgb(38, 50, 56);" d="M71.605 355.38c.004.144-6.348.445-14.187.672-7.84.227-14.2.295-14.204.15s6.347-.443 14.19-.67c7.837-.228 14.197-.296 14.2-.152z"/><g style="opacity: 0.4;"><path style="fill: rgb(255, 255, 255);" d="M45.173 378.59 67.5 388.97s-21.897 4.34-38.992-.224l16.665-10.155z"/></g><path style="fill: rgb(235, 235, 235);" d="M83.572 349.984S76.39 360.5 75.364 368.88c-1.026 8.378-1.197 18.894-1.197 18.894h3.25s-2.7-25.553 10.772-37.79H83.57z"/><polygon points="197.239 330.265 189.436 322.853 255.563 320.512 209.723 326.364" style="opacity: 0.3;"/><path style="fill: rgb(38, 50, 56);" d="M202.312 389.427c-.01 0-.02-.098-.035-.29l-.05-.855c-.046-.75-.062-1.86-.16-3.284a117.49 117.49 0 0 0-1.24-12.012c-.78-5.03-2.186-10.98-4.804-17.182-2.664-6.162-6.658-12.542-12.22-17.973-5.494-5.49-11.88-9.476-18.04-12.146-.384-.17-.766-.34-1.145-.51-.388-.147-.774-.293-1.157-.44l-2.268-.855c-1.53-.45-2.983-.994-4.443-1.328-1.45-.37-2.85-.73-4.224-.957l-2.007-.378-1.94-.254a65.435 65.435 0 0 0-12.04-.418c-1.426.06-2.524.225-3.274.273l-.853.07c-.193.012-.292.014-.293.005 0-.009.096-.029.286-.059.22-.03.5-.07.847-.12.747-.082 1.844-.279 3.272-.37 2.848-.23 7.01-.34 12.1.253l1.953.24 2.022.363c1.383.218 2.794.572 4.257.934 1.472.328 2.94.866 4.482 1.312l2.29.851 1.167.437 1.156.51c6.218 2.666 12.67 6.673 18.217 12.217 5.61 5.48 9.634 11.933 12.294 18.155 2.615 6.262 3.99 12.257 4.728 17.314.744 5.063.988 9.202 1.08 12.058.065 1.428.048 2.54.062 3.291 0 .351-.002.633-.003.855-.003.193-.01.292-.018.292z"/><g style="opacity: 0.4;"><polygon style="fill: rgb(255, 255, 255);" points="213.422 385.859 252.971 368.951 446.986 372.677"/></g><polygon style="fill: rgb(38, 50, 56);" points="250.596 369.966 195.96 329.051 209.723 326.364 266.19 369.205"/><path style="fill: rgb(38, 50, 56);" d="M268.044 405.674c-.01.002-.05-.128-.12-.384l-.285-1.135-1.034-4.342-3.615-15.703-.01-.054.016-.055c1.368-4.516 2.916-9.624 4.58-15.122l-.007.11-2.064-14.702c-.958-7.23-1.894-14.11-2.447-20.418l-.088-1.18c.001-.404-.009-.807.052-1.197.08-.787.28-1.534.486-2.263.445-1.448 1.022-2.795 1.625-4.07 1.225-2.543 2.557-4.806 3.82-6.837a137.22 137.22 0 0 1 6.422-9.326 99.458 99.458 0 0 1 1.88-2.437l.508-.62c.117-.136.18-.203.188-.198.007.004-.043.083-.146.23l-.467.65-1.8 2.493c-1.544 2.176-3.776 5.334-6.27 9.4-1.24 2.035-2.547 4.3-3.744 6.828-.59 1.267-1.15 2.602-1.577 4.018-.436 1.434-.64 2.888-.412 4.472.577 6.276 1.527 13.163 2.485 20.387l2.04 14.7.01.055-.017.053-4.654 15.1.004-.107 3.437 15.742c.39 1.857.7 3.324.92 4.368.095.477.17.856.227 1.15.046.258.065.393.054.396z"/><path style="fill: rgb(38, 50, 56);" d="m269.47 305.678 76.377-37.348 19.8.684s-49.35 11.755-58.677 37.83l-37.5-1.166z"/><path style="fill: rgb(38, 50, 56);" d="m493.668 282.916-7.513 8.397-54.315 4.76 1.257-25.138s52.173 7.856 60.57 11.98z"/><path style="fill: rgb(69, 90, 100);" d="M269.407 394.006s.224-.028.663-.058l1.95-.117c1.733-.09 4.256-.225 7.5-.397l27.588-1.367 91.03-4.315 13.153-.63c4.304-.233 8.383-1.69 12.063-3.612 7.337-4.036 13.01-10.046 17.62-16.153 4.607-6.16 8.312-12.523 10.92-18.844 2.617-6.315 4.09-12.59 4.495-18.386a50.172 50.172 0 0 0-.106-8.277 52.164 52.164 0 0 0-1.304-7.272c-1.203-4.46-2.872-8.113-4.542-10.9-1.672-2.795-3.324-4.724-4.453-6.01-.585-.626-1.056-1.08-1.358-1.4-.306-.316-.454-.488-.454-.488s.173.146.492.45c.315.306.8.75 1.398 1.366 1.157 1.267 2.842 3.183 4.55 5.977 1.705 2.785 3.413 6.447 4.65 10.93a52.126 52.126 0 0 1 1.352 7.313c.264 2.622.335 5.416.143 8.336-.383 5.838-1.847 12.163-4.463 18.524-2.607 6.367-6.318 12.772-10.934 18.967-4.63 6.15-10.33 12.216-17.763 16.316-3.728 1.952-7.884 3.44-12.265 3.68-4.332.21-8.728.42-13.176.635l-91.03 4.163-27.595 1.202-7.505.3-1.952.066c-.44.013-.666.006-.666.006z"/><path style="fill: rgb(38, 50, 56);" d="M490.622 314.082c-.075.008.007-1.003-.53-2.678-.513-1.656-1.946-3.95-4.65-5.56-2.644-1.63-6.6-2.41-10.582-1.272-1.973.573-3.925 1.656-5.443 3.295-1.525 1.62-2.516 3.854-2.532 6.213.015 2.36 1.006 4.594 2.53 6.215 1.52 1.64 3.472 2.724 5.445 3.296 3.98 1.137 7.94.357 10.584-1.27 2.703-1.613 4.136-3.905 4.647-5.562.54-1.673.456-2.684.532-2.676.018 0 .02.245.01.715.007.236-.03.525-.088.864-.037.345-.127.732-.26 1.16-.462 1.712-1.888 4.112-4.65 5.814-2.704 1.718-6.774 2.57-10.908 1.418-2.05-.58-4.087-1.697-5.685-3.41-1.603-1.693-2.663-4.06-2.677-6.563.015-2.503 1.075-4.87 2.678-6.56 1.6-1.713 3.637-2.83 5.685-3.41 4.133-1.15 8.203-.3 10.907 1.417 2.762 1.702 4.188 4.102 4.65 5.814.133.43.223.817.26 1.16.06.34.095.63.09.865.01.472.008.717-.01.717z"/><path style="fill: rgb(38, 50, 56);" d="M561.962 294.41c0 .008-.09.017-.265.027l-.78.03-2.994.07c-2.643.048-6.396.12-11.015.205-9.301.177-22.148.46-36.33.966-14.187.5-27.021 1.17-36.295 1.863-4.634.373-8.388.655-10.973.934l-2.982.276c-.316.024-.572.043-.777.06-.175.01-.265.01-.266 0 0-.008.087-.026.26-.054l.772-.11 2.973-.374c2.58-.342 6.33-.68 10.965-1.099 9.274-.789 22.113-1.515 36.306-2.017 14.189-.507 27.04-.73 36.345-.814 4.652-.043 8.417-.052 11.019-.04l2.996.028c.317.01.573.016.779.022.172.01.262.018.262.027z"/><polygon style="fill: rgb(235, 235, 235);" points="566.666 293.849 599.568 298.495 595.3 290.44"/><path style="fill: rgb(38, 50, 56);" d="M592.277 297.022c.016.008-.045.18-.178.5l-.604 1.393c-.53 1.208-1.343 2.933-2.393 5.043-2.096 4.222-5.221 9.948-9.101 16.01-3.89 6.058-7.788 11.288-10.75 14.955-1.478 1.835-2.706 3.295-3.582 4.28l-1.014 1.128c-.236.255-.367.383-.38.372-.014-.012.09-.162.3-.44l.938-1.19c.828-1.023 2.01-2.517 3.449-4.377a211.67 211.67 0 0 0 10.6-15.01 211.622 211.622 0 0 0 9.212-15.894 274.187 274.187 0 0 0 2.538-4.96l.69-1.35c.164-.31.258-.466.274-.458z"/><path style="fill: rgb(38, 50, 56);" d="M585.777 386.358c-.01 0-.014-.11-.016-.323l.008-.944c.032-.828.014-2.05-.034-3.622-.114-3.14-.6-7.69-1.956-13.146-1.365-5.452-3.663-11.775-6.943-18.448-1.646-3.33-3.457-6.8-5.685-10.165-2.223-3.36-4.915-6.618-8.297-9.223-3.387-2.603-7.2-4.42-10.99-5.786-3.802-1.357-7.6-2.296-11.245-3-7.304-1.366-14.043-1.615-19.649-1.267-5.62.293-10.108 1.165-13.179 1.826l-2.038.466-1.483.388-.916.228c-.207.05-.315.07-.317.06-.003-.008.1-.045.302-.11l.901-.28 1.474-.435 2.032-.514c3.065-.723 7.56-1.654 13.202-1.996 5.63-.396 12.407-.185 19.76 1.163 3.67.695 7.49 1.63 11.328 2.993 3.826 1.373 7.691 3.206 11.136 5.854 3.443 2.653 6.167 5.962 8.404 9.353 2.243 3.402 4.05 6.887 5.691 10.236 3.27 6.71 5.544 13.08 6.87 18.57 1.316 5.497 1.748 10.074 1.8 13.228.017 1.58.002 2.803-.064 3.633l-.058.943c-.017.21-.03.318-.038.318z"/><path style="fill: rgb(38, 50, 56);" d="M611.856 340.46c.01.035-.46.195-1.32.455-.86.264-2.115.605-3.675.99-3.118.772-7.478 1.66-12.346 2.28-4.87.614-9.314.844-12.527.875-1.607.017-2.907 0-3.805-.04-.898-.038-1.393-.075-1.393-.11 0-.037.496-.068 1.393-.093l3.794-.125c3.202-.125 7.621-.413 12.471-1.025a147.608 147.608 0 0 0 12.33-2.12l3.706-.828c.874-.2 1.362-.295 1.372-.26z"/><path style="fill: rgb(38, 50, 56);" d="M234.755 341.618s.215-.034.637-.075l1.873-.168 7.205-.595 26.508-2.078c22.386-1.712 53.317-4.027 87.51-6.123 17.103-1.052 33.402-1.932 48.232-2.62 14.826-.715 28.22-.973 39.44-.284 11.222.625 20.22 2.15 26.343 3.54 3.052.743 5.417 1.337 6.994 1.84.78.232 1.378.412 1.8.54.406.123.61.2.61.2s-.215-.042-.625-.15l-1.815-.49c-1.584-.47-3.955-1.03-7.01-1.743-6.126-1.327-15.114-2.792-26.32-3.37-11.203-.64-24.575-.344-39.396.396a3710.92 3710.92 0 0 0-48.22 2.66c-34.19 2.095-65.123 4.35-87.516 5.97l-26.52 1.912-7.213.498c-.81.05-1.435.09-1.876.116-.422.023-.64.022-.64.022z"/><ellipse transform="matrix(0.9999 -0.0141 0.0141 0.9999 -5.2856 7.4273)" style="fill: rgb(38, 50, 56);" cx="524.136" cy="378.595" rx="49.272" ry="49.272"/><path style="fill: rgb(38, 50, 56);" d="M474.878 377.758c0 .043-.008.084-.01.127-.39 27.21 21.348 49.585 48.557 49.977 27.21.393 49.585-21.347 49.978-48.556 0-.043-.005-.084-.005-.127l-98.52-1.422z"/><path style="fill: rgb(250, 250, 250);" d="M489.548 378.096c-.276 19.103 14.986 34.812 34.09 35.088 19.102.276 34.812-14.987 35.087-34.09.276-19.103-14.987-34.812-34.09-35.088-19.103-.275-34.81 14.987-35.087 34.09z"/><path style="fill: rgb(224, 224, 224);" d="M524.635 344.006c-19.103-.276-34.81 14.987-35.087 34.09l69.177.998c.276-19.103-14.987-34.812-34.09-35.088z"/><path style="fill: rgb(38, 50, 56);" d="M503.067 378.29c-.168 11.638 9.13 21.207 20.765 21.375 11.637.168 21.207-9.13 21.374-20.766.168-11.638-9.13-21.207-20.766-21.375-11.636-.168-21.205 9.13-21.373 20.766z"/><ellipse transform="matrix(1 -0.0066 0.0066 1 -2.4808 0.9188)" style="fill: rgb(38, 50, 56);" cx="138.812" cy="378.595" rx="49.272" ry="49.272"/><path style="fill: rgb(38, 50, 56);" d="M89.554 377.758c0 .043-.008.084-.01.127-.39 27.21 21.348 49.585 48.557 49.977 27.21.393 49.586-21.347 49.98-48.556 0-.043-.006-.084-.006-.127l-98.52-1.422z"/><path style="fill: rgb(250, 250, 250);" d="M104.224 378.096c-.275 19.103 14.987 34.812 34.09 35.088 19.102.276 34.812-14.987 35.087-34.09.276-19.103-14.986-34.812-34.09-35.088-19.102-.275-34.81 14.987-35.086 34.09z"/><path style="fill: rgb(224, 224, 224);" d="M139.31 344.006c-19.102-.276-34.81 14.987-35.086 34.09l69.177.998c.277-19.103-14.986-34.812-34.09-35.088z"/><path style="fill: rgb(38, 50, 56);" d="M117.743 378.29c-.168 11.638 9.13 21.207 20.765 21.375 11.637.168 21.207-9.13 21.374-20.766.168-11.638-9.13-21.207-20.766-21.375-11.636-.168-21.205 9.13-21.373 20.766z"/><path style="fill: rgb(38, 50, 56);" d="M462.754 293.363c.01-.047-.73-.026-2.126.082-1.397.106-3.457.288-6.108.54-5.302.5-12.97 1.28-22.44 2.275l-33.26 3.602-19.63 2.236-10.368 1.27c-3.497.484-7.07.963-10.685 1.32-7.234.75-14.31 1.305-21.15 1.793l-10.07.66-2.462.138c-.816 0-1.628.002-2.436.003h-4.785c-12.596-.018-23.94-.256-33.458-.65-9.52-.39-17.212-.88-22.526-1.238-2.64-.19-4.696-.34-6.116-.44-.683-.057-1.21-.1-1.59-.13-.358-.033-.54-.063-.54-.063s.185-.007.544.008l1.593.079 6.124.343c5.317.294 13.012.729 22.527 1.07 9.517.349 20.854.548 33.446.539l4.777-.008 2.43-.007 2.446-.142 10.063-.672c6.833-.494 13.906-1.05 21.13-1.8 3.616-.36 7.16-.833 10.672-1.317 3.51-.455 6.974-.864 10.377-1.263l19.634-2.207a3851.31 3851.31 0 0 1 33.275-3.49c9.478-.95 17.153-1.672 22.462-2.113 5.303-.44 8.268-.593 8.252-.417z"/><path style="fill: rgb(232, 80, 91);" d="M304.242 312.408s8.19-15.835 14.015-18.565c0 0 15.47-1.638 17.837-1.092 2.366.547 3.094 4.187 3.094 6.553 0 2.366.364 6.552-1.456 8.008-1.82 1.457-.364 1.275-3.822 2.185-3.458.91-10.92-.546-10.92-.546l.181 6.733s-8.19 4.186-13.468 2.912c-5.278-1.273-5.46-6.187-5.46-6.187z"/><path style="fill: rgb(38, 50, 56);" d="M323.246 315.69c-.013 0-.03-.155-.052-.453-.02-.34-.043-.775-.073-1.316l-.2-4.96-.008-.178.18.03c1.75.304 3.834.6 6.18.738 1.17.06 2.417.085 3.688-.078.63-.073 1.26-.253 1.917-.442.634-.215 1.363-.32 1.716-.84.22-.28.49-.558.766-.8.29-.257.547-.44.732-.73.396-.55.614-1.254.743-1.977.258-1.46.215-3.016.184-4.613.018-1.596-.115-3.213-.702-4.733-.3-.74-.712-1.47-1.347-1.922-.61-.503-1.454-.477-2.308-.507-2.905.01-5.757.254-8.486.46-2.73.225-5.35.468-7.82.717l.077-.02c-1.515.732-2.693 1.96-3.778 3.086-1.084 1.15-2.002 2.353-2.857 3.488-1.694 2.286-3.04 4.398-4.13 6.154a163.474 163.474 0 0 0-2.47 4.143c-.263.454-.475.82-.64 1.108-.15.25-.23.378-.24.37-.012-.005.045-.145.17-.407l.578-1.145a94.925 94.925 0 0 1 2.357-4.217c1.058-1.783 2.377-3.92 4.056-6.24.848-1.153 1.76-2.374 2.852-3.55 1.1-1.156 2.27-2.414 3.9-3.22l.034-.017.042-.004c2.472-.264 5.092-.519 7.827-.75 2.738-.217 5.58-.465 8.533-.476.443.021.868.006 1.33.085a2.7 2.7 0 0 1 1.28.523c.76.55 1.2 1.361 1.522 2.154.622 1.608.748 3.324.725 4.914.024 1.596.066 3.18-.212 4.71-.142.76-.372 1.522-.838 2.166-.213.332-.562.586-.81.802a5.73 5.73 0 0 0-.72.742c-2.548 1.726-5.36 1.564-7.696 1.453a51.582 51.582 0 0 1-6.213-.837l.172-.146.065 4.966c0 .541 0 .977-.002 1.318-.004.3-.013.454-.027.455z"/><path style="fill: rgb(69, 90, 100);" d="M218.044 334.675c0 .144-2.678.26-5.98.26-3.305 0-5.982-.117-5.982-.26 0-.144 2.677-.26 5.98-.26 3.304 0 5.982.116 5.982.26z"/><path style="fill: rgb(69, 90, 100);" d="M226.597 340.952c0 .144-2.678.26-5.98.26-3.305 0-5.982-.117-5.982-.26s2.677-.26 5.98-.26c3.304 0 5.982.117 5.982.26z"/><path style="fill: rgb(69, 90, 100);" d="M235.15 347.23c0 .144-2.68.26-5.982.26-3.304 0-5.98-.117-5.98-.26s2.676-.26 5.98-.26c3.303 0 5.98.116 5.98.26z"/><path style="fill: rgb(69, 90, 100);" d="M243.702 353.508c0 .144-2.678.26-5.98.26-3.305 0-5.982-.117-5.982-.26s2.677-.26 5.98-.26c3.304 0 5.982.116 5.982.26z"/><path style="fill: rgb(69, 90, 100);" d="M252.255 359.785c0 .144-2.678.26-5.98.26-3.305 0-5.982-.117-5.982-.26s2.677-.26 5.98-.26c3.304 0 5.982.116 5.982.26z"/><path style="fill: rgb(69, 90, 100);" d="M260.807 366.063c0 .144-2.678.26-5.98.26-3.305 0-5.982-.117-5.982-.26 0-.144 2.677-.26 5.98-.26 3.304 0 5.982.116 5.982.26z"/><path style="fill: rgb(255, 255, 255);" d="M333.998 294.94c0 .143-3.3.26-7.37.26-4.073 0-7.373-.118-7.373-.26s3.3-.26 7.372-.26c4.07-.002 7.37.115 7.37.26z"/><path style="fill: rgb(255, 255, 255);" d="M159.145 320.444c-.01.035-.545-.07-1.502-.29a72.157 72.157 0 0 0-4.073-.822c-1.725-.313-3.795-.588-6.102-.796a73.907 73.907 0 0 0-7.527-.222 74.34 74.34 0 0 0-7.505.62c-2.293.33-4.346.714-6.052 1.117a72.595 72.595 0 0 0-4.023 1.037c-.944.27-1.473.403-1.485.37-.012-.035.495-.233 1.424-.563.924-.34 2.29-.756 3.996-1.2 1.705-.452 3.765-.877 6.07-1.235a67.395 67.395 0 0 1 7.562-.667 67.36 67.36 0 0 1 7.583.265c2.322.236 4.402.55 6.128.912 1.727.353 3.113.697 4.055.987.945.282 1.462.453 1.452.487z"/><path style="fill: rgb(255, 255, 255);" d="M446.986 372.677c.008.144-52.18 3.145-116.548 6.704-64.39 3.56-116.58 6.33-116.588 6.185-.008-.143 52.168-3.145 116.56-6.704 64.37-3.558 116.568-6.327 116.576-6.183z"/><path style="fill: rgb(255, 255, 255);" d="M547.338 320.01c-.012.035-.606-.123-1.668-.436a35.277 35.277 0 0 0-1.942-.542c-.762-.193-1.62-.445-2.59-.644-1.922-.457-4.24-.88-6.826-1.228a76.23 76.23 0 0 0-8.47-.575 76.133 76.133 0 0 0-8.477.466c-2.592.317-4.914.71-6.843 1.142-.972.186-1.833.427-2.597.61-.766.178-1.417.362-1.948.517-1.066.298-1.66.448-1.673.414-.01-.034.563-.25 1.614-.61a26.56 26.56 0 0 1 1.93-.603c.76-.21 1.62-.477 2.592-.687 1.93-.481 4.26-.914 6.868-1.258 2.61-.313 5.5-.52 8.54-.511a70.56 70.56 0 0 1 8.528.62c2.603.377 4.928.84 6.85 1.346.969.222 1.825.5 2.582.722.759.216 1.402.436 1.924.629 1.046.375 1.618.598 1.606.63z"/><path style="fill: rgb(255, 255, 255);" d="M474.807 303.066c.01.087-.738.193-1.878.565a13.506 13.506 0 0 0-4.092 2.196 13.548 13.548 0 0 0-3.083 3.472c-.626 1.023-.902 1.726-.985 1.696-.053-.016.1-.772.664-1.877.557-1.102 1.59-2.517 3.08-3.7 1.495-1.175 3.11-1.853 4.31-2.14 1.208-.29 1.98-.266 1.983-.21z"/><path style="fill: rgb(255, 255, 255);" d="M515.66 293.527c.01.067-1.16.3-3.065.55a88.584 88.584 0 0 1-7.484.643c-2.932.13-5.59.104-7.512.02-1.92-.083-3.104-.21-3.1-.28.002-.075 1.19-.078 3.107-.088 1.917-.01 4.563-.044 7.483-.172a195.1 195.1 0 0 0 7.468-.488c1.91-.158 3.094-.26 3.104-.185z"/><path style="fill: rgb(255, 255, 255);" d="M405.905 302.302c.02.142-9.824 1.683-21.987 3.44-12.166 1.758-22.043 3.067-22.063 2.925-.02-.142 9.822-1.682 21.99-3.44 12.16-1.758 22.04-3.068 22.06-2.925z"/><path style="fill: rgb(255, 255, 255);" d="M395.87 280.458c.057.132-4.63 2.29-10.47 4.818-5.84 2.53-10.62 4.472-10.678 4.34-.057-.132 4.63-2.29 10.472-4.818 5.838-2.528 10.62-4.47 10.676-4.34z"/><path style="fill: rgb(255, 255, 255);" d="M390.293 277.712c.016.032-.462.314-1.34.796-.88.484-2.163 1.16-3.76 1.97a252.82 252.82 0 0 1-12.67 5.972 252.256 252.256 0 0 1-12.977 5.27 135.45 135.45 0 0 1-3.997 1.43c-.95.32-1.482.48-1.495.447-.012-.034.495-.26 1.423-.636l3.934-1.582a459.003 459.003 0 0 0 12.902-5.404c5-2.194 9.482-4.286 12.715-5.825 1.552-.74 2.84-1.352 3.83-1.822.907-.427 1.416-.648 1.433-.616z"/><path style="fill: rgb(69, 90, 100);" d="M566.904 365.33c-.158.045-.906-2.944-2.728-6.228-1.796-3.3-3.917-5.533-3.795-5.643.047-.046.638.454 1.465 1.39.827.935 1.866 2.327 2.787 4 .918 1.676 1.536 3.3 1.88 4.498.35 1.2.455 1.967.392 1.982z"/><path style="fill: rgb(69, 90, 100);" d="M566.35 376.208c-.085 0-.12-.998-.316-2.59a31.71 31.71 0 0 0-1.376-6.084 31.642 31.642 0 0 0-2.58-5.68c-.805-1.387-1.38-2.203-1.314-2.254.047-.037.73.703 1.627 2.06.898 1.35 1.966 3.35 2.762 5.707.79 2.36 1.147 4.596 1.25 6.215.104 1.624.007 2.627-.053 2.626z"/><path style="fill: rgb(69, 90, 100);" d="M490.857 398.604c-.05.04-.694-.658-1.57-1.917-.874-1.256-1.947-3.097-2.838-5.265-.887-2.17-1.415-4.235-1.672-5.744-.26-1.51-.29-2.46-.227-2.466.168-.03.61 3.74 2.38 8.013 1.737 4.286 4.066 7.283 3.927 7.38z"/><path style="fill: rgb(69, 90, 100);" d="M492.39 406.787c-.025.026-.262-.17-.67-.544-.412-.372-.976-.943-1.644-1.676-1.337-1.463-3.042-3.627-4.6-6.23-1.552-2.605-2.648-5.133-3.302-7.004a25.934 25.934 0 0 1-.696-2.24c-.137-.538-.196-.84-.16-.85.078-.023.462 1.137 1.2 2.96a51 51 0 0 0 3.406 6.87 50.93 50.93 0 0 0 4.43 6.254c1.255 1.514 2.095 2.402 2.036 2.46z"/><path style="fill: rgb(69, 90, 100);" d="M109.066 404.306c-.05.046-.67-.512-1.585-1.5-.914-.99-2.11-2.42-3.304-4.096a42.497 42.497 0 0 1-2.787-4.465c-.636-1.188-.96-1.958-.9-1.99.138-.072 1.74 2.834 4.11 6.153 2.358 3.326 4.58 5.79 4.466 5.898z"/><path style="fill: rgb(69, 90, 100);" d="M110.48 409.996c-.086.106-2.268-1.584-4.634-4.02-2.372-2.433-4-4.66-3.892-4.744.117-.095 1.913 1.97 4.266 4.38 2.345 2.417 4.36 4.27 4.26 4.384z"/><path style="fill: rgb(69, 90, 100);" d="M178.955 372.57c-.158.022-.517-2.58-1.648-5.585-1.11-3.013-2.54-5.216-2.407-5.303.098-.082 1.757 2.037 2.895 5.12 1.156 3.077 1.288 5.766 1.16 5.768z"/><path style="fill: rgb(69, 90, 100);" d="M181.514 373.522c-.168.024-.434-3.426-2.028-7.313-1.558-3.905-3.766-6.568-3.63-6.667.05-.04.66.57 1.484 1.7.823 1.124 1.824 2.79 2.628 4.77.8 1.982 1.24 3.876 1.43 5.257.193 1.382.178 2.248.116 2.252z"/><path style="fill: rgb(69, 90, 100);" d="M100.387 416.482c-.046.05-.66-.423-1.56-1.288a32.324 32.324 0 0 1-3.227-3.656 32.357 32.357 0 0 1-2.65-4.095c-.592-1.1-.88-1.818-.82-1.85.14-.073 1.598 2.63 3.885 5.63 2.27 3.01 4.48 5.144 4.372 5.26z"/><path style="fill: rgb(69, 90, 100);" d="M103.028 422.536c-.018.03-.307-.102-.815-.37-.51-.265-1.227-.692-2.087-1.257-1.722-1.127-3.984-2.882-6.175-5.143-2.185-2.267-3.862-4.588-4.93-6.347-.534-.88-.937-1.608-1.183-2.128-.252-.517-.375-.81-.343-.827.075-.04.698 1.064 1.837 2.756a46.22 46.22 0 0 0 4.996 6.186 46.305 46.305 0 0 0 6.01 5.202c1.652 1.194 2.735 1.855 2.692 1.928z"/><path style="fill: rgb(38, 50, 56);" d="M700.7 343.577c0 .144-14.067.26-31.416.26-17.356 0-31.42-.117-31.42-.26s14.065-.26 31.42-.26c17.35 0 31.417.116 31.417.26z"/><path style="fill: rgb(38, 50, 56);" d="M701.168 338.204c0 .144-9.99.26-22.307.26-12.322 0-22.31-.117-22.31-.26 0-.144 9.988-.26 22.31-.26 12.32 0 22.308.116 22.308.26z"/></g><g id="Speedometer"><circle style="fill: rgb(250, 250, 250);" cx="560.321" cy="192.623" r="66.566"/><path style="fill: rgb(38, 50, 56);" d="M560.32 260.19c-37.255 0-67.565-30.31-67.565-67.567 0-37.256 30.31-67.566 67.566-67.566 37.257 0 67.566 30.31 67.566 67.566 0 37.256-30.31 67.566-67.565 67.566zm0-133.133c-36.152 0-65.565 29.413-65.565 65.566s29.413 65.566 65.566 65.566c36.154 0 65.566-29.414 65.566-65.567s-29.41-65.566-65.565-65.566z"/><path style="fill: rgb(38, 50, 56);" d="M561.028 146.404c-.144 0-.26-2.856-.26-6.38 0-3.523.117-6.378.26-6.378.144 0 .26 2.855.26 6.38 0 3.522-.117 6.378-.26 6.378z"/><path style="fill: rgb(38, 50, 56);" d="M526.607 158.984c-.104.1-1.996-1.69-4.227-3.998-2.232-2.31-3.956-4.26-3.853-4.36.103-.1 1.996 1.69 4.228 3.998 2.23 2.308 3.955 4.26 3.852 4.36z"/><path style="fill: rgb(38, 50, 56);" d="M517.79 194.01c0 .145-3.582.26-8 .26-4.422 0-8.004-.116-8.004-.26 0-.143 3.582-.26 8.003-.26 4.418 0 8 .118 8 .26z"/><path style="fill: rgb(38, 50, 56);" d="M526.454 226.683c.094.096-1.445 1.844-3.39 3.968-1.948 2.126-3.667 3.726-3.774 3.616-.094-.096 1.444-1.843 3.39-3.968 1.946-2.124 3.666-3.725 3.774-3.615z"/><path style="fill: rgb(232, 80, 91);" d="M602.037 233.59c5.074-5.325 15.32-17.255 16.92-36.366 2.08-24.817-8.738-37.85-16.744-46.505l-6.954 6.65c7.123 7.595 18.065 22.692 15.083 40.585-2.4 14.404-9.866 25.25-14.38 29.923l6.074 5.71z"/><path style="fill: rgb(38, 50, 56);" d="M558.68 201.148a7.792 7.792 0 1 1 3.018-15.289 7.792 7.792 0 0 1-3.017 15.288z"/><polygon style="fill: rgb(38, 50, 56);" points="587.928 211.903 542.75 177.292 538.451 183.842"/><path style="fill: rgb(38, 50, 56);" d="M619.18 192.066s-.025-.323-.05-.954c-.04-.63-.02-1.57-.133-2.797-.153-2.454-.567-6.077-1.693-10.612a59.03 59.03 0 0 0-6.52-15.65 59.455 59.455 0 0 0-14.93-16.67 57.462 57.462 0 0 0-11.214-6.693c-4.142-1.878-8.667-3.385-13.493-4.253-4.817-.887-9.915-1.236-15.122-.828-2.607.154-5.227.58-7.858 1.1a62.55 62.55 0 0 0-7.838 2.237c-10.343 3.747-20.17 10.743-27.25 20.444-7.116 9.636-11.384 21.932-11.36 34.666-.03 12.74 4.24 25.04 11.356 34.677 7.08 9.704 16.908 16.702 27.252 20.45a62.79 62.79 0 0 0 7.84 2.238c2.63.522 5.25.947 7.858 1.102 5.207.408 10.306.06 15.123-.83 4.825-.866 9.35-2.375 13.492-4.253a57.465 57.465 0 0 0 11.214-6.695 59.462 59.462 0 0 0 14.928-16.672 59.026 59.026 0 0 0 6.518-15.648c1.125-4.535 1.54-8.157 1.692-10.61.113-1.226.092-2.166.133-2.796.028-.63.054-.954.054-.954s.04 1.295-.078 3.757c-.12 2.46-.502 6.095-1.6 10.653a58.79 58.79 0 0 1-6.465 15.748 59.587 59.587 0 0 1-14.955 16.816c-3.322 2.563-7.102 4.864-11.27 6.767-4.166 1.9-8.72 3.43-13.58 4.313-4.852.903-9.99 1.263-15.236.86-2.627-.152-5.27-.575-7.922-1.098a62.947 62.947 0 0 1-7.906-2.246c-10.434-3.766-20.353-10.814-27.5-20.6-7.184-9.716-11.495-22.128-11.466-34.98-.025-12.845 4.286-25.253 11.47-34.966 7.146-9.78 17.063-16.827 27.496-20.593a62.933 62.933 0 0 1 7.905-2.246c2.653-.52 5.294-.945 7.922-1.098 5.247-.403 10.383-.043 15.234.86 4.86.883 9.413 2.41 13.58 4.31a57.73 57.73 0 0 1 11.27 6.767 59.595 59.595 0 0 1 14.956 16.814 58.77 58.77 0 0 1 6.466 15.75c1.1 4.557 1.48 8.193 1.6 10.653.118 2.464.08 3.76.08 3.76z"/><path style="fill: rgb(38, 50, 56);" d="M619.207 191.692c0 .144-2.815.26-6.288.26-3.475 0-6.29-.117-6.29-.26 0-.144 2.816-.26 6.289-.26 3.472 0 6.287.116 6.287.26z"/><path style="fill: rgb(38, 50, 56);" d="M602.04 233.592c-.1.104-2.32-1.87-4.958-4.408-2.64-2.538-4.697-4.68-4.597-4.783.1-.103 2.32 1.87 4.958 4.41 2.64 2.537 4.697 4.68 4.597 4.782z"/><path style="fill: rgb(38, 50, 56);" d="M602.212 150.72c.166.15-1.77 2.13-4.27 4.406-2.502 2.282-4.623 4.027-4.718 3.92-.096-.107 1.868-2.025 4.368-4.305 1.25-1.14 2.395-2.155 3.232-2.88.85-.734 1.342-1.15 1.388-1.14z"/><path style="fill: rgb(38, 50, 56);" d="M591.688 214.16c.104.078-1.294 1.54-3.622 2.206-2.322.69-4.287.207-4.24.085.013-.158 1.904.07 4.094-.584 2.198-.623 3.67-1.833 3.768-1.706z"/><path style="fill: rgb(38, 50, 56);" d="M593.73 216.04c.04.043-.454.593-1.447 1.246-.986.654-2.507 1.354-4.3 1.673-1.797.31-3.466.17-4.616-.108-1.156-.276-1.807-.624-1.785-.677.031-.168 2.823.915 6.31.27 3.496-.582 5.752-2.55 5.84-2.404z"/><path style="fill: rgb(38, 50, 56);" d="M545.725 172.54c-.05.152-1.835-.563-4.115-.357-2.284.17-3.926 1.167-4 1.025-.1-.09 1.52-1.357 3.958-1.544 2.433-.214 4.238.772 4.157.876z"/><path style="fill: rgb(38, 50, 56);" d="M546.617 170.787c-.038.163-2.628-.708-5.89-.373-3.27.29-5.646 1.638-5.714 1.485-.09-.088 2.26-1.697 5.663-2.005 3.398-.344 6.013.79 5.94.892z"/></g></svg>