<svg id="visual" viewBox="0 0 900 600" width="900" height="600" xmlns="http://www.w3.org/2000/svg" xmlns:xlink="http://www.w3.org/1999/xlink" version="1.1"><path d="M0 121L82 121L82 79L164 79L164 115L245 115L245 79L327 79L327 139L409 139L409 139L491 139L491 97L573 97L573 121L655 121L655 85L736 85L736 79L818 79L818 67L900 67L900 121L900 0L900 0L818 0L818 0L736 0L736 0L655 0L655 0L573 0L573 0L491 0L491 0L409 0L409 0L327 0L327 0L245 0L245 0L164 0L164 0L82 0L82 0L0 0Z" fill="#001122"></path><path d="M0 283L82 283L82 223L164 223L164 253L245 253L245 349L327 349L327 253L409 253L409 259L491 259L491 325L573 325L573 217L655 217L655 187L736 187L736 181L818 181L818 265L900 265L900 241L900 119L900 65L818 65L818 77L736 77L736 83L655 83L655 119L573 119L573 95L491 95L491 137L409 137L409 137L327 137L327 77L245 77L245 113L164 113L164 77L82 77L82 119L0 119Z" fill="#b32e61"></path><path d="M0 457L82 457L82 463L164 463L164 433L245 433L245 463L327 463L327 451L409 451L409 487L491 487L491 469L573 469L573 463L655 463L655 433L736 433L736 481L818 481L818 445L900 445L900 397L900 239L900 263L818 263L818 179L736 179L736 185L655 185L655 215L573 215L573 323L491 323L491 257L409 257L409 251L327 251L327 347L245 347L245 251L164 251L164 221L82 221L82 281L0 281Z" fill="#f7770f"></path><path d="M0 523L82 523L82 535L164 535L164 553L245 553L245 505L327 505L327 517L409 517L409 529L491 529L491 529L573 529L573 499L655 499L655 559L736 559L736 529L818 529L818 523L900 523L900 517L900 395L900 443L818 443L818 479L736 479L736 431L655 431L655 461L573 461L573 467L491 467L491 485L409 485L409 449L327 449L327 461L245 461L245 431L164 431L164 461L82 461L82 455L0 455Z" fill="#b32e61"></path><path d="M0 601L82 601L82 601L164 601L164 601L245 601L245 601L327 601L327 601L409 601L409 601L491 601L491 601L573 601L573 601L655 601L655 601L736 601L736 601L818 601L818 601L900 601L900 601L900 515L900 521L818 521L818 527L736 527L736 557L655 557L655 497L573 497L573 527L491 527L491 527L409 527L409 515L327 515L327 503L245 503L245 551L164 551L164 533L82 533L82 521L0 521Z" fill="#001122"></path></svg>